<mxfile host="app.diagrams.net" modified="2023-06-01T15:02:09.369Z" agent="Mozilla/5.0 (Windows NT 10.0; Win64; x64) AppleWebKit/537.36 (KHTML, like Gecko) Chrome/113.0.0.0 Safari/537.36" etag="6jWPfkQbsaKvreVHFFbr" version="21.3.6" type="github">
  <diagram name="第 1 页" id="gmjsHyCnFX8tEVxgEqUk">
    <mxGraphModel dx="1795" dy="538" grid="1" gridSize="10" guides="1" tooltips="1" connect="1" arrows="1" fold="1" page="1" pageScale="1" pageWidth="827" pageHeight="1169" math="0" shadow="0">
      <root>
        <mxCell id="0" />
        <mxCell id="1" parent="0" />
        <mxCell id="PjlBlb0cIDK0whVqbfls-12" style="edgeStyle=orthogonalEdgeStyle;rounded=0;orthogonalLoop=1;jettySize=auto;html=1;exitX=1;exitY=0.5;exitDx=0;exitDy=0;entryX=0;entryY=0.5;entryDx=0;entryDy=0;" edge="1" parent="1" source="PjlBlb0cIDK0whVqbfls-16" target="PjlBlb0cIDK0whVqbfls-19">
          <mxGeometry relative="1" as="geometry" />
        </mxCell>
        <mxCell id="PjlBlb0cIDK0whVqbfls-13" style="edgeStyle=orthogonalEdgeStyle;rounded=0;orthogonalLoop=1;jettySize=auto;html=1;exitX=1;exitY=0.5;exitDx=0;exitDy=0;entryX=0;entryY=0.5;entryDx=0;entryDy=0;" edge="1" parent="1" source="PjlBlb0cIDK0whVqbfls-16" target="PjlBlb0cIDK0whVqbfls-18">
          <mxGeometry relative="1" as="geometry" />
        </mxCell>
        <mxCell id="PjlBlb0cIDK0whVqbfls-14" style="edgeStyle=orthogonalEdgeStyle;rounded=0;orthogonalLoop=1;jettySize=auto;html=1;exitX=1;exitY=0.5;exitDx=0;exitDy=0;entryX=0;entryY=0.5;entryDx=0;entryDy=0;" edge="1" parent="1" source="PjlBlb0cIDK0whVqbfls-16" target="PjlBlb0cIDK0whVqbfls-20">
          <mxGeometry relative="1" as="geometry" />
        </mxCell>
        <mxCell id="PjlBlb0cIDK0whVqbfls-15" style="edgeStyle=orthogonalEdgeStyle;rounded=0;orthogonalLoop=1;jettySize=auto;html=1;exitX=1;exitY=0.5;exitDx=0;exitDy=0;entryX=0;entryY=0.5;entryDx=0;entryDy=0;" edge="1" parent="1" source="PjlBlb0cIDK0whVqbfls-16" target="PjlBlb0cIDK0whVqbfls-17">
          <mxGeometry relative="1" as="geometry" />
        </mxCell>
        <mxCell id="PjlBlb0cIDK0whVqbfls-23" style="edgeStyle=orthogonalEdgeStyle;rounded=0;orthogonalLoop=1;jettySize=auto;html=1;exitX=1;exitY=0.5;exitDx=0;exitDy=0;entryX=0;entryY=0.5;entryDx=0;entryDy=0;" edge="1" parent="1" source="PjlBlb0cIDK0whVqbfls-16" target="PjlBlb0cIDK0whVqbfls-21">
          <mxGeometry relative="1" as="geometry" />
        </mxCell>
        <mxCell id="PjlBlb0cIDK0whVqbfls-24" style="edgeStyle=orthogonalEdgeStyle;rounded=0;orthogonalLoop=1;jettySize=auto;html=1;exitX=1;exitY=0.5;exitDx=0;exitDy=0;entryX=0;entryY=0.5;entryDx=0;entryDy=0;" edge="1" parent="1" source="PjlBlb0cIDK0whVqbfls-16" target="PjlBlb0cIDK0whVqbfls-22">
          <mxGeometry relative="1" as="geometry" />
        </mxCell>
        <mxCell id="PjlBlb0cIDK0whVqbfls-16" value="客户开发进度表" style="rounded=0;whiteSpace=wrap;html=1;" vertex="1" parent="1">
          <mxGeometry x="-180" y="280" width="120" height="40" as="geometry" />
        </mxCell>
        <mxCell id="PjlBlb0cIDK0whVqbfls-17" value="客户开发进度表&lt;br&gt;F进度描述" style="rounded=0;whiteSpace=wrap;html=1;" vertex="1" parent="1">
          <mxGeometry x="100" y="480" width="120" height="40" as="geometry" />
        </mxCell>
        <mxCell id="PjlBlb0cIDK0whVqbfls-18" value="客户开发进度表&lt;br&gt;E落地转移情况" style="rounded=0;whiteSpace=wrap;html=1;" vertex="1" parent="1">
          <mxGeometry x="100" y="400" width="120" height="40" as="geometry" />
        </mxCell>
        <mxCell id="PjlBlb0cIDK0whVqbfls-19" value="客户开发进度表&lt;br&gt;B项目情况" style="rounded=0;whiteSpace=wrap;html=1;" vertex="1" parent="1">
          <mxGeometry x="100" y="160" width="120" height="40" as="geometry" />
        </mxCell>
        <mxCell id="PjlBlb0cIDK0whVqbfls-20" value="客户开发进度表&lt;br&gt;A客户情况" style="rounded=0;whiteSpace=wrap;html=1;" vertex="1" parent="1">
          <mxGeometry x="100" y="80" width="120" height="40" as="geometry" />
        </mxCell>
        <mxCell id="PjlBlb0cIDK0whVqbfls-21" value="客户开发进度表&lt;br&gt;C项目跟进" style="rounded=0;whiteSpace=wrap;html=1;" vertex="1" parent="1">
          <mxGeometry x="100" y="240" width="120" height="40" as="geometry" />
        </mxCell>
        <mxCell id="PjlBlb0cIDK0whVqbfls-22" value="客户开发进度表&lt;br&gt;D授权书情况" style="rounded=0;whiteSpace=wrap;html=1;" vertex="1" parent="1">
          <mxGeometry x="100" y="320" width="120" height="40" as="geometry" />
        </mxCell>
      </root>
    </mxGraphModel>
  </diagram>
</mxfile>
